PathFileType	4	(X/Y/Z)	C:\Users\Owen\Repositories\CapacitiveSensingKinematics\CSOptimalControl\OutputData\FilteredlIMUGyros.trc
DataRate	CameraRate	NumFrames	NumMarkers	Units	OrigDataRate	OrigDataStartFrame	OrigNumFrames
100	100	15	8	m	100	0	7057
Frame#	Time	/bodyset/torso/torso_imu_offset			/bodyset/pelvis/pelvis_imu_offset			/bodyset/tibia_r/tibia_r_imu_offset			/bodyset/femur_r/femur_r_imu_offset			/bodyset/tibia_l/tibia_l_imu_offset			/bodyset/femur_l/femur_l_imu_offset			/bodyset/toes_r/toes_r_imu_offset			/bodyset/toes_l/toes_l_imu_offset			
		X1	Y1	Z1	X2	Y2	Z2	X3	Y3	Z3	X4	Y4	Z4	X5	Y5	Z5	X6	Y6	Z6	X7	Y7	Z7	X8	Y8	Z8	

1	0	0.07331450682912904	0.02046693846089675	-0.01790207103902234	0.04690965864266173	0.04158342237019988	0.01190185823667782	-0.03459356083942532	-0.01582495423798659	-0.04532873324413603	0.03832803082622556	-0.03620259795064063	-0.04392567886027181	-0.04289298978815938	0.05013920536674225	0.07014575666691604	0.0556996456702655	0.02460656929585208	-0.01338778448519925	-0.01220284348691784	-0.02746059630424525	-0.004960438272390643	-0.02642172574245977	0.003174375576175583	0.03118588145677944	
2	0.01	0.06621433556996355	0.01634062473124517	-0.01588752156725387	0.0379659582327512	0.03564033595068372	0.009786276103611147	-0.0007177752497326021	-0.01265357113218751	-0.04856802051455376	0.03763846521460121	-0.02921101733269307	-0.03670340368510965	-0.0554496487880296	0.05016261246406643	0.0696459891619053	0.04910248601652716	0.01962101831540445	-0.0109336523660541	-0.01166055116800828	-0.02866022189414137	-0.003505053861962813	-0.02713176027529344	0.003256816621350712	0.03002698706422878	
3	0.02	0.05947642120817521	0.01322761756986812	-0.01437022393657724	0.0285471474103269	0.02939862288764484	0.007584084575396785	0.03194663430124293	-0.009888595039516352	-0.05170719817388976	0.03737980289772168	-0.02283000418663643	-0.02978152215406252	-0.06623245603362024	0.05024425313490746	0.0689831411835657	0.04165476331820969	0.01540682448169256	-0.007613262446311539	-0.01101585547622808	-0.02925830852922641	-0.0022887085690399	-0.02734475169262189	0.00344326059791263	0.02874513615897535	
4	0.03	0.05317863838642326	0.01198123774458543	-0.01362160463505706	0.01868021950428518	0.0226635574915656	0.00521557018801773	0.05998074525602747	-0.008207092467560743	-0.05481993521665723	0.03756255776911748	-0.01800875909112482	-0.02356988028486177	-0.0733753493940407	0.05040072304877716	0.06800629795535806	0.03270074911126182	0.0126407900885472	-0.002889463651778313	-0.01013909591662186	-0.02885410855488036	-0.001589307300311634	-0.02670574011970676	0.003701899949057668	0.0272798266658673	
5	0.04	0.0471618929479824	0.01306312174971285	-0.01363158434280748	0.009151855842529161	0.01551785736287527	0.002669606960028153	0.07764051469853843	-0.008320089966144197	-0.05807161127962147	0.03759975924745435	-0.01567674458958639	-0.01846932167547984	-0.07569410269026737	0.05049686867112965	0.06652790099352146	0.0219743059734002	0.01168892626252092	0.003196000748467889	-0.008951219738052622	-0.02739127828664867	-0.001651504917349837	-0.02519070921031197	0.003830229030562812	0.02572816404815561	
6	0.05	0.0411462778062547	0.01648858236090165	-0.01421526761820737	0.00128870247813955	0.008397851403189169	9.059973300548874e-05	0.07928493727791618	-0.01039092443083739	-0.06140044223425246	0.03624260278573397	-0.01602173228801687	-0.01476680670291905	-0.07330412073198471	0.05017317282748612	0.06421197255025965	0.009728448045994664	0.01233134290230363	0.01012963357172262	-0.007574480016107546	-0.02512568348682115	-0.002552110606059109	-0.02313237032749785	0.003593703249029007	0.02428264352499744	
7	0.06	0.03492059604928578	0.02189044458007467	-0.01513892511714465	-0.003765535972546417	0.001957902270892519	-0.002213152275268949	0.06333652919497375	-0.01377753438631338	-0.06437853513517668	0.03210691798155497	-0.01826089016091978	-0.01263307861566266	-0.06731485492869799	0.04904494481178234	0.06072933543674194	-0.003196813343849457	0.01378955439855742	0.01727496208228165	-0.006286132381537405	-0.02244932239770828	-0.00411311910329221	-0.02098754470743748	0.002936462110322412	0.02306719937733464	
8	0.07000000000000001	0.02864223461558065	0.02850960728707425	-0.01619698022969298	-0.005817270493171681	-0.003157857238527723	-0.003944137355963538	0.03444886217764484	-0.01741311224441357	-0.06638061417804225	0.0245142106093886	-0.02110943396085304	-0.01217237512965928	-0.05892503852043683	0.04695949928296521	0.05608216539697514	-0.01547205170611664	0.01516485554489771	0.02426161237137353	-0.005282377716870557	-0.01970508888865971	-0.005932930038137258	-0.01902508846511768	0.002113023304813802	0.02204639649971936	
9	0.08	0.02295743159011423	0.03523495394506229	-0.01718902114084448	-0.005774245495089565	-0.00650716711244561	-0.004943516755311913	0.00177209824284243	-0.02036999699349247	-0.06682151207009471	0.014061122899033	-0.02348058451986347	-0.01338229838232768	-0.04901847908737421	0.04408916116506854	0.05067473561489709	-0.02557066472175062	0.01590688316353321	0.03106280990538889	-0.004627518618243058	-0.01709267980168461	-0.007533691149412157	-0.01726264223050639	0.001532351145353587	0.02103752994568717	
10	0.09	0.01870054017176017	0.04111094639332862	-0.01781605473006106	-0.005111180890396031	-0.007941990125459469	-0.005104206871571918	-0.02493592087110836	-0.02202213144593536	-0.06529089071466419	0.002485834348565705	-0.02491574761824406	-0.01608603088088695	-0.03848111246120379	0.04073552816026096	0.045004775232656	-0.03214164869096425	0.01596810560090854	0.03777320970328764	-0.004355469821512869	-0.01467954916789676	-0.0085259870999201	-0.01564197469406697	0.001419830177821977	0.01986170947588939	
11	0.1	0.01633553277513802	0.04592268870679609	-0.01760898163330715	-0.005153828463553398	-0.007565778020160097	-0.004339724501727637	-0.03857799312142479	-0.02190572340387448	-0.06164715524136498	-0.008026273137163961	-0.0256129159488152	-0.01996363736901325	-0.02841369138381045	0.03698009082455653	0.03937054939487171	-0.03431745041604519	0.01567433118648393	0.04440177145675672	-0.004449958539669556	-0.012497842415581	-0.00870615024164275	-0.01418993004297941	0.001725456902935267	0.01853917185133029	
12	0.11	0.01559286651866696	0.05012547772520855	-0.01599816737289313	-0.006560760274542589	-0.00556084168515023	-0.002704208563143231	-0.03665939093266538	-0.0198541344704299	-0.05613540771295184	-0.01552385270525331	-0.02611519196031224	-0.02462781624974319	-0.0198474766516238	0.03273654818182621	0.03397667782329681	-0.03192450298001949	0.01543918246722448	0.05081871850080148	-0.004752917183165453	-0.01060997901516064	-0.008122802122679332	-0.01304676656958205	0.00231682369493509	0.01729526975848265	
13	0.12	0.01554498662787206	0.05464779397145392	-0.0125213523299794	-0.009248956329904981	-0.001962765322495878	-0.0004271916908388394	-0.02183865755655442	-0.01641803353988078	-0.04951240999103315	-0.0187279563011541	-0.02680425804889317	-0.02965323191667882	-0.01345272881741447	0.0282836307041861	0.02930665123189422	-0.02557904262789783	0.01546414380521221	0.05679934894360715	-0.004932098827885951	-0.009062953894576358	-0.007094496050757401	-0.01237722830917199	0.003097179569828473	0.0163933657432628	
14	0.13	0.0149332002658299	0.06100925591917409	-0.007047634996350159	-0.01282656662650571	0.003440988772781812	0.002109163046404785	-0.0005608472305433728	-0.01280870553725402	-0.04309495134854385	-0.01735242847109277	-0.0275828194194877	-0.03453713629605647	-0.009602237234847806	0.02452302555278774	0.02628899659936255	-0.01662861734844727	0.0156060374004025	0.06203052203791513	-0.004500606321699165	-0.007864506391917428	-0.006079417055655787	-0.01227629064665782	0.003942180793750452	0.01598364061789528	
15	0.14	0.01269243951273862	0.0708195494846228	5.26294170472136e-05	-0.01703424749545404	0.01089314175212381	0.00434084206579425	0.01976784451630815	-0.0101045307428349	-0.03862939351744445	-0.01218825260791301	-0.02803408032176896	-0.03867697295132659	-0.008600508869378696	0.0225920900796742	0.02605537691018929	-0.006931179930384371	0.0154670155596228	0.06607476562911485	-0.002930562328122381	-0.007079941414939173	-0.005510016718732119	-0.0127288977925981	0.004613425973638595	0.01608391901001278	
